<?xml version="1.0" encoding="utf-8"?>
<!-- Generator: Adobe Illustrator 16.0.0, SVG Export Plug-In . SVG Version: 6.00 Build 0)  -->
<!DOCTYPE svg PUBLIC "-//W3C//DTD SVG 1.1//EN" "http://www.w3.org/Graphics/SVG/1.1/DTD/svg11.dtd">
<svg version="1.1" id="Layer_1" xmlns="http://www.w3.org/2000/svg" xmlns:xlink="http://www.w3.org/1999/xlink" x="0px" y="0px"
	 width="852px" height="800px" viewBox="0 0 852 800" enable-background="new 0 0 852 800" xml:space="preserve">
<g>
	<g>
		
			<image overflow="visible" enable-background="new    " width="958" height="939" xlink:href="B521391E5F7A1835.png"  transform="matrix(1 0 0 1 -41 -41)">
		</image>
	</g>
	
		<radialGradient id="SVGID_1_" cx="51.7646" cy="708.4873" r="747.7324" gradientTransform="matrix(1.058 0 0 -1 121.249 879)" gradientUnits="userSpaceOnUse">
		<stop  offset="0" style="stop-color:#8CC63F"/>
		<stop  offset="1" style="stop-color:#006837"/>
	</radialGradient>
	<rect x="-5" y="-5" opacity="0.4" fill="url(#SVGID_1_)" enable-background="new    " width="886" height="867"/>
</g>
<g id="mouth_x5F_openn" display="none">
	<g display="inline">
		<path fill="none" d="M368.896,546.929c0.202-0.027,0.417-0.054,0.639-0.082c-1.279-0.589-2.667-1.988-3.786-2.685
			C366.435,545.289,367.727,547.089,368.896,546.929z"/>
		<g>
			<path fill="#FFFFFF" d="M455.055,559.148l0.647-3.82l1.294,3.525c0,0,18.847-5.303,26.247-7.83l0.375-2.376l-11.705,1.096
				c-0.082,0.007-0.165,0.005-0.245-0.007l-3.654-0.567c-4.825-0.754-6.244-0.946-16.075-1.649
				c-7.03,5.736-23.334,6.132-24.036,6.146c-12.263,0-22.141-5.151-23.717-6.019c-3.478-0.237-7.502-0.363-11.659-0.363
				c-4.379,0-8.666,0.141-12.396,0.407c-1.64,0.116-3.136,0.253-4.447,0.404c-0.691,0.081-1.345,0.053-1.985-0.017l0.916,4.086
				C380.729,554.965,421.891,572.714,455.055,559.148z"/>
			<path d="M429.626,567.79c0.05-0.008,0.101,0.21,0.152,0.21h2.153l2.283-0.282c7.219-0.891,13.453-1.661,19.126-2.833
				c13.636-2.816,23.36-7.773,29.595-11.924l0.307-1.937c-7.399,2.527-26.247,7.831-26.247,7.831l-1.294-3.526l-0.647,3.82
				c-33.164,13.564-74.326-4.184-80.44-6.983l0.103,0.458C386.218,558.665,406.745,568,423.673,568c0.001,0,0.002,0,0.003,0
				C425.764,568,427.765,568.077,429.626,567.79z"/>
			<path d="M482.938,552.96c4.453-2.965,7.13-5.519,8.163-6.584c-0.002-0.005-0.004-0.009-0.007-0.014
				c-0.017-0.031-0.083-0.168-0.096-0.201l-0.078-0.147c-0.031-0.06-0.062-0.119-0.093-0.179c-0.272,0.087-0.409,0.146-0.474,0.176
				l-0.041,0.063c-0.377,0.568-0.982,1.049-5.744,2.463c-0.062,0.019-0.126,0.031-0.191,0.037l-0.759,0.071l-0.375,2.376
				L482.938,552.96z"/>
			<path d="M373.699,548.08c-0.397-0.042-0.791-0.097-1.183-0.16l-0.113-0.019c-0.738-0.119-1.396-0.233-1.961-0.16l-1.409,0.178
				c-1.291,0.176-2.638-0.847-4.01-3.031c-0.531,1.008,0.455,2.158,0.583,2.316c0.175,0.215,0.321,0.351,0.422,0.541
				c0.867,0.534,4.046,2.438,8.689,4.877l-0.103-0.458L373.699,548.08z"/>
			<path fill="#F4AB98" stroke="#E89787" stroke-miterlimit="10" d="M491.601,548.712c-3.979,3.827-15.913,13.598-37.854,18.131
				c-5.752,1.188-12.023,1.962-19.286,2.859l-2.343,0.54c-0.041,0.005-0.082,0.258-0.123,0.258h-2.141c-1.938,0-4.018,0-6.179,0
				c-0.001,0-0.002,0-0.003,0c-23.578,0-52.854-17.263-58.138-20.462c0.03,0.078,0.062,0.034,0.093,0.115
				c1.105,2.841,3.106,7.134,6.398,11.998c6.314,9.331,17.393,20.443,36.067,26.17c6.971,2.137,14.983,3.512,24.217,3.757
				c0,0,5.618-0.098,13.55-2.198c12.253-3.245,30.028-11.305,41.184-31.274c1.216-2.176,2.354-4.491,3.397-6.96
				C490.843,550.693,491.229,549.71,491.601,548.712z"/>
			<path fill="#F29D7E" stroke="#D37E63" stroke-miterlimit="10" d="M366.489,543.448l0.115,0.193
				c1.146,1.884,1.937,2.296,2.144,2.296l1.431-0.179c0.8-0.105,1.654,0.024,2.544,0.168l0.112,0.019
				c0.919,0.147,1.727,0.267,2.618,0.165c1.341-0.156,2.867-0.295,4.535-0.414c3.777-0.271,8.112-0.412,12.538-0.412
				c4.292,0,8.449,0.132,12.021,0.383c0.15,0.011,0.297,0.055,0.428,0.13c0.104,0.06,10.374,5.868,22.906,5.868
				c0.147-0.003,16.772-0.406,23.062-5.923c0.201-0.176,0.458-0.264,0.73-0.246c10.28,0.732,11.688,0.922,16.648,1.697l3.526,0.547
				l12.243-1.146c3.709-1.104,4.441-1.528,4.583-1.661c0.267-0.454,0.606-0.693,1.463-0.977c-0.984-0.983-1.982-1.919-2.995-2.795
				c-21.232-18.366-47.61-13.795-47.61-13.795c-12.284,10.009-14.55,9.649-14.55,9.649c-1.859,0.608-14.549-7.482-14.549-7.482
				c-10.377,0.237-30.784,6.979-40.934,12.174c-1.153,0.59-2.178,1.161-3.037,1.699C366.474,543.421,366.48,543.433,366.489,543.448
				z"/>
			<path fill="#872E16" d="M493.113,547.148c0.289-0.338,0.319-0.824,0.079-1.196c-0.048-0.072-0.103-0.136-0.163-0.192
				c-0.002-0.003-0.004-0.006-0.006-0.008c-0.038-0.089-0.082-0.176-0.133-0.266l-0.045-0.089c-0.012-0.03-0.045-0.104-0.061-0.132
				l-0.088-0.168c-0.104-0.201-0.213-0.409-0.326-0.584c-0.129-0.197-0.521-0.802-1.245-0.802c-0.09,0-0.272,0.03-0.359,0.054
				c-0.003,0-0.096,0.026-0.099,0.027c-0.199,0.057-0.37,0.111-0.529,0.163c-0.856,0.283-1.197,0.521-1.463,0.977
				c-0.142,0.133-0.874,0.556-4.583,1.661l-12.243,1.146l-3.526-0.547c-4.96-0.775-6.368-0.964-16.648-1.697
				c-0.271-0.018-0.53,0.07-0.73,0.246c-6.289,5.518-22.915,5.92-23.062,5.923c-12.533,0-22.804-5.81-22.906-5.868
				c-0.131-0.075-0.276-0.12-0.428-0.13c-3.573-0.251-7.729-0.383-12.021-0.383c-4.426,0-8.761,0.143-12.538,0.412
				c-1.668,0.119-3.194,0.258-4.535,0.414c-0.891,0.103-1.699-0.017-2.618-0.165l-0.112-0.019c-0.89-0.144-1.744-0.273-2.544-0.168
				l-1.431,0.179c-0.208,0-0.998-0.412-2.144-2.296l-0.115-0.193c-0.009-0.016-0.015-0.027-0.024-0.042
				c-0.191-0.328-0.312-0.562-0.317-0.574c-0.128-0.25-0.355-0.438-0.626-0.512s-0.561-0.037-0.798,0.111
				c-0.269,0.17-0.509,0.342-0.753,0.567c-1.75,1.617-1.218,3.925,0.086,5.524c0.113,0.138,0.243,0.336,0.287,0.435
				c0.081,0.183,0.213,0.225,0.381,0.331c0.1,0.062,0.388,0.242,0.811,0.498c5.284,3.199,34.56,20.212,58.138,20.212
				c0.001,0,0.002,0,0.003,0c2.161,0,4.239,0.295,6.18,0h2.14c0.041,0,0.083-0.002,0.123-0.008l2.343-0.29
				c7.262-0.896,13.534-1.67,19.286-2.859c21.942-4.534,33.875-14.305,37.854-18.131
				C492.524,547.824,493.021,547.256,493.113,547.148z M423.673,568c-16.928,0-37.455-9.335-48.956-15.377
				c-4.643-2.439-7.822-4.344-8.689-4.877c-0.101-0.19-0.247-0.326-0.422-0.541c-0.129-0.158-1.115-1.311-0.583-2.316
				c1.373,2.186,2.72,3.208,4.01,3.031l1.409-0.178c0.565-0.074,1.224,0.041,1.961,0.16l0.113,0.019
				c0.392,0.063,0.785,0.117,1.183,0.16c0.64,0.067,1.293,0.097,1.985,0.017c1.312-0.151,2.808-0.288,4.447-0.404
				c3.73-0.268,8.017-0.407,12.396-0.407c4.157,0,8.182,0.125,11.658,0.362c1.577,0.868,11.456,6.02,23.718,6.02
				c0.701-0.014,17.006-0.409,24.035-6.146c9.832,0.703,11.25,0.896,16.076,1.649l3.654,0.567c0.081,0.013,0.163,0.015,0.245,0.007
				l11.705-1.097l0.759-0.07c0.065-0.006,0.129-0.02,0.191-0.037c4.762-1.414,5.366-1.895,5.744-2.463l0.041-0.063
				c0.064-0.031,0.201-0.089,0.474-0.176c0.031,0.06,0.062,0.12,0.093,0.179l0.078,0.147c0.013,0.033,0.079,0.169,0.096,0.201
				c0.002,0.005,0.004,0.009,0.007,0.014c-1.033,1.065-3.71,3.619-8.163,6.584c-6.235,4.15-15.96,9.107-29.596,11.924
				c-5.673,1.172-11.907,1.942-19.126,2.833L431.933,568h-2.153c-0.051,0-0.103-0.218-0.152-0.21c-1.861,0.287-3.862,0.21-5.95,0.21
				C423.675,568,423.674,568,423.673,568z"/>
		</g>
	</g>
	<path display="inline" fill="#FFCBAE" stroke="#BF7D60" stroke-miterlimit="10" d="M493,536.5c0,0,9.5,9,5,16
		C498,552.5,508,547.5,493,536.5z"/>
	<path display="inline" fill="#FFCBAE" stroke="#BF7D60" stroke-miterlimit="10" d="M362,535.5c0,0-8.5,6-5.5,16.5
		C356.5,552,347,542.5,362,535.5z"/>
</g>
</svg>
